<svg width="167" height="107" viewBox="0 0 167 107" fill="none" xmlns="http://www.w3.org/2000/svg">
<g filter="url(#filter0_d_136_5)">
<mask id="path-1-outside-1_136_5" maskUnits="userSpaceOnUse" x="3" y="-1" width="161" height="101" fill="black">
<rect fill="white" x="3" y="-1" width="161" height="101"/>
<path d="M160.438 0.75C161.688 1.41667 162.312 2.45833 162.312 3.875C162.312 4.375 162.188 4.91667 161.938 5.5C160.854 7.58333 159.521 10.4583 157.938 14.125C156.354 17.7917 154.729 21.6667 153.062 25.75C151.396 29.8333 149.812 33.8333 148.312 37.75C146.896 41.6667 145.771 44.9167 144.938 47.5C144.438 49.1667 143.604 51.4583 142.438 54.375C141.354 57.2917 140.104 60.5 138.688 64C137.271 67.4167 135.812 70.9167 134.312 74.5C132.812 78 131.438 81.25 130.188 84.25C128.938 87.1667 127.854 89.625 126.938 91.625C126.104 93.625 125.646 94.75 125.562 95C125.062 96.25 124.146 96.9583 122.812 97.125C122.396 97.5417 121.938 97.875 121.438 98.125C120.938 98.2917 120.479 98.375 120.062 98.375C118.562 98.375 117.479 97.6667 116.812 96.25C116.729 96 116.229 94.875 115.312 92.875C114.479 90.875 113.438 88.4167 112.188 85.5C110.938 82.5 109.562 79.2083 108.062 75.625C106.562 72.0417 105.104 68.5417 103.688 65.125C102.354 61.7083 101.104 58.5417 99.9375 55.625C98.7708 52.7083 97.9375 50.4167 97.4375 48.75C96.7708 46.6667 95.8958 44.125 94.8125 41.125C93.7292 38.0417 92.5208 34.8333 91.1875 31.5C89.8542 28.1667 88.4792 24.875 87.0625 21.625C85.7292 18.2917 84.4792 15.2917 83.3125 12.625C82.1458 15.2917 80.8958 18.25 79.5625 21.5C78.2292 24.6667 76.9375 27.8333 75.6875 31C74.4375 34.1667 73.2708 37.2083 72.1875 40.125C71.1875 43.0417 70.3542 45.5 69.6875 47.5C69.1875 49.1667 68.3542 51.4583 67.1875 54.375C66.0208 57.2917 64.7292 60.5 63.3125 64C61.9792 67.4167 60.5625 70.9167 59.0625 74.5C57.5625 78 56.1875 81.25 54.9375 84.25C53.6875 87.1667 52.6042 89.625 51.6875 91.625C50.8542 93.625 50.3958 94.75 50.3125 95C49.8125 96.25 48.8542 96.9583 47.4375 97.125C47.1875 97.5417 46.7708 97.875 46.1875 98.125C45.9375 98.2083 45.6875 98.25 45.4375 98.25C45.2708 98.3333 45.0625 98.375 44.8125 98.375C43.3125 98.375 42.2292 97.6667 41.5625 96.25C41.4792 96 40.9792 94.875 40.0625 92.875C39.2292 90.875 38.1875 88.4167 36.9375 85.5C35.6875 82.5 34.3125 79.2083 32.8125 75.625C31.3125 72.0417 29.8542 68.5417 28.4375 65.125C27.1042 61.7083 25.8542 58.5417 24.6875 55.625C23.5208 52.7083 22.6875 50.4167 22.1875 48.75C21.3542 46.1667 20.1875 42.9167 18.6875 39C17.2708 35.0833 15.7292 31.0833 14.0625 27C12.4792 22.9167 10.8958 19.0417 9.3125 15.375C7.64583 11.625 6.27083 8.70833 5.1875 6.625C4.9375 6.125 4.8125 5.58333 4.8125 5C4.8125 3.66667 5.4375 2.66667 6.6875 2C7.10417 1.66667 7.64583 1.5 8.3125 1.5C9.72917 1.5 10.7708 2.125 11.4375 3.375C12.6042 5.70833 14.0208 8.83333 15.6875 12.75C17.3542 16.5833 19.0208 20.625 20.6875 24.875C22.4375 29.0417 24.0208 33.125 25.4375 37.125C26.9375 41.0417 28.0625 44.1667 28.8125 46.5C29.3958 48.4167 30.3958 51.1667 31.8125 54.75C33.2292 58.25 34.7708 62.0417 36.4375 66.125C38.1042 70.125 39.7708 74.125 41.4375 78.125C43.1042 82.0417 44.5208 85.3333 45.6875 88C46.7708 85.5 48.1458 82.25 49.8125 78.25C51.5625 74.1667 53.3125 70.0417 55.0625 65.875C56.8125 61.625 58.3958 57.625 59.8125 53.875C61.3125 50.125 62.3958 47.2917 63.0625 45.375C63.8125 42.9583 64.8958 39.7917 66.3125 35.875C67.8125 31.9583 69.3958 27.875 71.0625 23.625C72.7292 19.375 74.3958 15.3333 76.0625 11.5C77.8125 7.58333 79.2708 4.5 80.4375 2.25C80.7708 1.58333 81.1875 1.125 81.6875 0.875C82.2708 0.541667 82.8958 0.375 83.5625 0.375C84.1458 0.375 84.6875 0.5 85.1875 0.75C86.4375 1.41667 87.0625 2.54167 87.0625 4.125C88.3125 6.54167 89.7292 9.70833 91.3125 13.625C92.9792 17.4583 94.6042 21.4167 96.1875 25.5C97.8542 29.5833 99.3958 33.5417 100.812 37.375C102.229 41.125 103.312 44.1667 104.062 46.5C104.646 48.4167 105.646 51.1667 107.062 54.75C108.479 58.25 110.021 62.0417 111.688 66.125C113.354 70.125 115.021 74.125 116.688 78.125C118.354 82.0417 119.771 85.3333 120.938 88C122.021 85.5 123.396 82.25 125.062 78.25C126.812 74.1667 128.562 70.0417 130.312 65.875C132.062 61.625 133.646 57.625 135.062 53.875C136.562 50.125 137.646 47.2917 138.312 45.375C139.062 42.9583 140.146 39.7917 141.562 35.875C143.062 31.9583 144.646 27.875 146.312 23.625C147.979 19.375 149.646 15.3333 151.312 11.5C153.062 7.58333 154.521 4.5 155.688 2.25C156.021 1.58333 156.438 1.125 156.938 0.875C157.521 0.541667 158.146 0.375 158.812 0.375C159.396 0.375 159.938 0.5 160.438 0.75Z"/>
</mask>
<path d="M160.438 0.75C161.688 1.41667 162.312 2.45833 162.312 3.875C162.312 4.375 162.188 4.91667 161.938 5.5C160.854 7.58333 159.521 10.4583 157.938 14.125C156.354 17.7917 154.729 21.6667 153.062 25.75C151.396 29.8333 149.812 33.8333 148.312 37.75C146.896 41.6667 145.771 44.9167 144.938 47.5C144.438 49.1667 143.604 51.4583 142.438 54.375C141.354 57.2917 140.104 60.5 138.688 64C137.271 67.4167 135.812 70.9167 134.312 74.5C132.812 78 131.438 81.25 130.188 84.25C128.938 87.1667 127.854 89.625 126.938 91.625C126.104 93.625 125.646 94.75 125.562 95C125.062 96.25 124.146 96.9583 122.812 97.125C122.396 97.5417 121.938 97.875 121.438 98.125C120.938 98.2917 120.479 98.375 120.062 98.375C118.562 98.375 117.479 97.6667 116.812 96.25C116.729 96 116.229 94.875 115.312 92.875C114.479 90.875 113.438 88.4167 112.188 85.5C110.938 82.5 109.562 79.2083 108.062 75.625C106.562 72.0417 105.104 68.5417 103.688 65.125C102.354 61.7083 101.104 58.5417 99.9375 55.625C98.7708 52.7083 97.9375 50.4167 97.4375 48.75C96.7708 46.6667 95.8958 44.125 94.8125 41.125C93.7292 38.0417 92.5208 34.8333 91.1875 31.5C89.8542 28.1667 88.4792 24.875 87.0625 21.625C85.7292 18.2917 84.4792 15.2917 83.3125 12.625C82.1458 15.2917 80.8958 18.25 79.5625 21.5C78.2292 24.6667 76.9375 27.8333 75.6875 31C74.4375 34.1667 73.2708 37.2083 72.1875 40.125C71.1875 43.0417 70.3542 45.5 69.6875 47.5C69.1875 49.1667 68.3542 51.4583 67.1875 54.375C66.0208 57.2917 64.7292 60.5 63.3125 64C61.9792 67.4167 60.5625 70.9167 59.0625 74.5C57.5625 78 56.1875 81.25 54.9375 84.25C53.6875 87.1667 52.6042 89.625 51.6875 91.625C50.8542 93.625 50.3958 94.75 50.3125 95C49.8125 96.25 48.8542 96.9583 47.4375 97.125C47.1875 97.5417 46.7708 97.875 46.1875 98.125C45.9375 98.2083 45.6875 98.25 45.4375 98.25C45.2708 98.3333 45.0625 98.375 44.8125 98.375C43.3125 98.375 42.2292 97.6667 41.5625 96.25C41.4792 96 40.9792 94.875 40.0625 92.875C39.2292 90.875 38.1875 88.4167 36.9375 85.5C35.6875 82.5 34.3125 79.2083 32.8125 75.625C31.3125 72.0417 29.8542 68.5417 28.4375 65.125C27.1042 61.7083 25.8542 58.5417 24.6875 55.625C23.5208 52.7083 22.6875 50.4167 22.1875 48.75C21.3542 46.1667 20.1875 42.9167 18.6875 39C17.2708 35.0833 15.7292 31.0833 14.0625 27C12.4792 22.9167 10.8958 19.0417 9.3125 15.375C7.64583 11.625 6.27083 8.70833 5.1875 6.625C4.9375 6.125 4.8125 5.58333 4.8125 5C4.8125 3.66667 5.4375 2.66667 6.6875 2C7.10417 1.66667 7.64583 1.5 8.3125 1.5C9.72917 1.5 10.7708 2.125 11.4375 3.375C12.6042 5.70833 14.0208 8.83333 15.6875 12.75C17.3542 16.5833 19.0208 20.625 20.6875 24.875C22.4375 29.0417 24.0208 33.125 25.4375 37.125C26.9375 41.0417 28.0625 44.1667 28.8125 46.5C29.3958 48.4167 30.3958 51.1667 31.8125 54.75C33.2292 58.25 34.7708 62.0417 36.4375 66.125C38.1042 70.125 39.7708 74.125 41.4375 78.125C43.1042 82.0417 44.5208 85.3333 45.6875 88C46.7708 85.5 48.1458 82.25 49.8125 78.25C51.5625 74.1667 53.3125 70.0417 55.0625 65.875C56.8125 61.625 58.3958 57.625 59.8125 53.875C61.3125 50.125 62.3958 47.2917 63.0625 45.375C63.8125 42.9583 64.8958 39.7917 66.3125 35.875C67.8125 31.9583 69.3958 27.875 71.0625 23.625C72.7292 19.375 74.3958 15.3333 76.0625 11.5C77.8125 7.58333 79.2708 4.5 80.4375 2.25C80.7708 1.58333 81.1875 1.125 81.6875 0.875C82.2708 0.541667 82.8958 0.375 83.5625 0.375C84.1458 0.375 84.6875 0.5 85.1875 0.75C86.4375 1.41667 87.0625 2.54167 87.0625 4.125C88.3125 6.54167 89.7292 9.70833 91.3125 13.625C92.9792 17.4583 94.6042 21.4167 96.1875 25.5C97.8542 29.5833 99.3958 33.5417 100.812 37.375C102.229 41.125 103.312 44.1667 104.062 46.5C104.646 48.4167 105.646 51.1667 107.062 54.75C108.479 58.25 110.021 62.0417 111.688 66.125C113.354 70.125 115.021 74.125 116.688 78.125C118.354 82.0417 119.771 85.3333 120.938 88C122.021 85.5 123.396 82.25 125.062 78.25C126.812 74.1667 128.562 70.0417 130.312 65.875C132.062 61.625 133.646 57.625 135.062 53.875C136.562 50.125 137.646 47.2917 138.312 45.375C139.062 42.9583 140.146 39.7917 141.562 35.875C143.062 31.9583 144.646 27.875 146.312 23.625C147.979 19.375 149.646 15.3333 151.312 11.5C153.062 7.58333 154.521 4.5 155.688 2.25C156.021 1.58333 156.438 1.125 156.938 0.875C157.521 0.541667 158.146 0.375 158.812 0.375C159.396 0.375 159.938 0.5 160.438 0.75Z" fill="#670000"/>
<path d="M160.438 0.75L160.908 -0.132353L160.896 -0.138544L160.885 -0.144427L160.438 0.75ZM161.938 5.5L162.825 5.96135L162.842 5.92823L162.857 5.89392L161.938 5.5ZM148.312 37.75L147.379 37.3924L147.375 37.4011L147.372 37.4099L148.312 37.75ZM144.938 47.5L143.986 47.193L143.983 47.2028L143.98 47.2127L144.938 47.5ZM142.438 54.375L141.509 54.0036L141.504 54.0152L141.5 54.0268L142.438 54.375ZM138.688 64L139.611 64.383L139.614 64.3752L138.688 64ZM134.312 74.5L135.232 74.8939L135.235 74.8861L134.312 74.5ZM130.188 84.25L131.107 84.6439L131.111 84.6346L130.188 84.25ZM126.938 91.625L126.028 91.2083L126.021 91.2242L126.014 91.2404L126.938 91.625ZM125.562 95L126.491 95.3714L126.502 95.3441L126.511 95.3162L125.562 95ZM122.812 97.125L122.688 96.1327L122.348 96.1753L122.105 96.4179L122.812 97.125ZM121.438 98.125L121.754 99.0737L121.821 99.0512L121.885 99.0194L121.438 98.125ZM116.812 96.25L115.864 96.5662L115.883 96.6223L115.908 96.6758L116.812 96.25ZM115.312 92.875L114.389 93.2596L114.396 93.2758L114.403 93.2917L115.312 92.875ZM112.188 85.5L111.264 85.8846L111.268 85.8939L112.188 85.5ZM103.688 65.125L102.756 65.4885L102.76 65.4983L102.764 65.508L103.688 65.125ZM97.4375 48.75L98.3953 48.4627L98.3927 48.4539L98.3899 48.4452L97.4375 48.75ZM94.8125 41.125L93.869 41.4565L93.8719 41.4646L94.8125 41.125ZM87.0625 21.625L86.134 21.9964L86.1397 22.0106L86.1458 22.0246L87.0625 21.625ZM83.3125 12.625L84.2287 12.2242L83.3125 10.1301L82.3963 12.2242L83.3125 12.625ZM79.5625 21.5L80.4842 21.8881L80.4877 21.8796L79.5625 21.5ZM72.1875 40.125L71.2501 39.7768L71.2457 39.7887L71.2416 39.8007L72.1875 40.125ZM69.6875 47.5L68.7388 47.1838L68.734 47.1981L68.7297 47.2127L69.6875 47.5ZM63.3125 64L62.3855 63.6248L62.3809 63.6365L63.3125 64ZM59.0625 74.5L59.9817 74.8939L59.9849 74.8861L59.0625 74.5ZM54.9375 84.25L55.8567 84.6439L55.8606 84.6346L54.9375 84.25ZM51.6875 91.625L50.7784 91.2083L50.7711 91.2242L50.7644 91.2404L51.6875 91.625ZM50.3125 95L51.241 95.3714L51.2519 95.3441L51.2612 95.3162L50.3125 95ZM47.4375 97.125L47.3207 96.1318L46.8328 96.1892L46.58 96.6105L47.4375 97.125ZM46.1875 98.125L46.5037 99.0737L46.5432 99.0605L46.5814 99.0441L46.1875 98.125ZM45.4375 98.25V97.25H45.2014L44.9903 97.3556L45.4375 98.25ZM41.5625 96.25L40.6138 96.5662L40.6325 96.6223L40.6577 96.6758L41.5625 96.25ZM40.0625 92.875L39.1394 93.2596L39.1461 93.2758L39.1534 93.2917L40.0625 92.875ZM36.9375 85.5L36.0144 85.8846L36.0184 85.8939L36.9375 85.5ZM28.4375 65.125L27.5059 65.4885L27.5097 65.4983L27.5138 65.508L28.4375 65.125ZM22.1875 48.75L23.1453 48.4627L23.1424 48.4528L23.1392 48.443L22.1875 48.75ZM18.6875 39L17.7471 39.3401L17.7503 39.3489L17.7536 39.3576L18.6875 39ZM14.0625 27L13.1301 27.3615L13.1333 27.3697L13.1367 27.3779L14.0625 27ZM9.3125 15.375L10.2306 14.9785L10.2263 14.9689L9.3125 15.375ZM5.1875 6.625L4.29307 7.07221L4.29662 7.07931L4.30028 7.08635L5.1875 6.625ZM6.6875 2L7.15809 2.88235L7.23984 2.83875L7.3122 2.78087L6.6875 2ZM11.4375 3.375L12.3319 2.92779L12.326 2.91602L12.3199 2.90441L11.4375 3.375ZM15.6875 12.75L14.7673 13.1416L14.7704 13.1487L15.6875 12.75ZM20.6875 24.875L19.7565 25.2401L19.7609 25.2512L19.7655 25.2622L20.6875 24.875ZM25.4375 37.125L24.4949 37.4588L24.4991 37.4708L24.5036 37.4826L25.4375 37.125ZM28.8125 46.5L29.7692 46.2088L29.7669 46.2014L29.7645 46.194L28.8125 46.5ZM31.8125 54.75L30.8825 55.1177L30.8856 55.1252L31.8125 54.75ZM36.4375 66.125L35.5116 66.5029L35.5144 66.5096L36.4375 66.125ZM41.4375 78.125L40.5144 78.5096L40.5173 78.5166L41.4375 78.125ZM45.6875 88L44.7713 88.4008L45.6919 90.5049L46.6051 88.3976L45.6875 88ZM49.8125 78.25L48.8933 77.8561L48.8894 77.8654L49.8125 78.25ZM55.0625 65.875L55.9845 66.2622L55.9872 66.2557L55.0625 65.875ZM59.8125 53.875L58.884 53.5036L58.8804 53.5126L58.877 53.5216L59.8125 53.875ZM63.0625 45.375L64.007 45.7035L64.0126 45.6875L64.0176 45.6714L63.0625 45.375ZM66.3125 35.875L65.3786 35.5174L65.3753 35.5261L65.3721 35.5349L66.3125 35.875ZM76.0625 11.5L75.1494 11.092L75.1454 11.1013L76.0625 11.5ZM80.4375 2.25L81.3253 2.71032L81.3286 2.70379L81.3319 2.69721L80.4375 2.25ZM81.6875 0.875L82.1347 1.76943L82.1595 1.75701L82.1836 1.74324L81.6875 0.875ZM85.1875 0.75L85.6581 -0.132353L85.6465 -0.138544L85.6347 -0.144427L85.1875 0.75ZM87.0625 4.125H86.0625V4.36831L86.1743 4.58442L87.0625 4.125ZM91.3125 13.625L90.3854 13.9998L90.3903 14.0118L90.3954 14.0237L91.3125 13.625ZM96.1875 25.5L95.2551 25.8615L95.2583 25.8697L95.2617 25.8779L96.1875 25.5ZM100.812 37.375L99.8745 37.7217L99.877 37.7284L100.812 37.375ZM104.062 46.5L105.019 46.2088L105.017 46.2014L105.015 46.194L104.062 46.5ZM107.062 54.75L106.133 55.1177L106.136 55.1252L107.062 54.75ZM111.688 66.125L110.762 66.5029L110.764 66.5096L111.688 66.125ZM116.688 78.125L115.764 78.5096L115.767 78.5166L116.688 78.125ZM120.938 88L120.021 88.4008L120.942 90.5049L121.855 88.3976L120.938 88ZM125.062 78.25L124.143 77.8561L124.139 77.8654L125.062 78.25ZM130.312 65.875L131.235 66.2622L131.237 66.2557L130.312 65.875ZM135.062 53.875L134.134 53.5036L134.13 53.5126L134.127 53.5216L135.062 53.875ZM138.312 45.375L139.257 45.7035L139.263 45.6875L139.268 45.6714L138.312 45.375ZM141.562 35.875L140.629 35.5174L140.625 35.5261L140.622 35.5349L141.562 35.875ZM151.312 11.5L150.399 11.092L150.395 11.1013L151.312 11.5ZM155.688 2.25L156.575 2.71032L156.579 2.70379L156.582 2.69721L155.688 2.25ZM156.938 0.875L157.385 1.76943L157.41 1.75701L157.434 1.74324L156.938 0.875ZM159.967 1.63235C160.459 1.89476 160.782 2.20457 160.986 2.54575C161.191 2.88693 161.312 3.31739 161.312 3.875H163.312C163.312 3.01594 163.122 2.21724 162.701 1.51675C162.281 0.816267 161.666 0.271909 160.908 -0.132353L159.967 1.63235ZM161.312 3.875C161.312 4.2084 161.229 4.61495 161.018 5.10608L162.857 5.89392C163.146 5.21838 163.312 4.5416 163.312 3.875H161.312ZM161.05 5.03865C159.951 7.15286 158.607 10.0528 157.019 13.7286L158.856 14.5214C160.435 10.8639 161.757 8.01381 162.825 5.96135L161.05 5.03865ZM157.019 13.7286C155.433 17.402 153.806 21.2832 152.137 25.3721L153.988 26.1279C155.653 22.0501 157.275 18.1814 158.856 14.5214L157.019 13.7286ZM152.137 25.3721C150.467 29.4618 148.881 33.4686 147.379 37.3924L149.246 38.1076C150.744 34.1981 152.324 30.2049 153.988 26.1279L152.137 25.3721ZM147.372 37.4099C145.953 41.3324 144.824 44.5944 143.986 47.193L145.889 47.807C146.718 45.239 147.838 42.0009 149.253 38.0901L147.372 37.4099ZM143.98 47.2127C143.492 48.8369 142.672 51.0964 141.509 54.0036L143.366 54.7464C144.536 51.8203 145.383 49.4965 145.895 47.7873L143.98 47.2127ZM141.5 54.0268C140.421 56.9328 139.174 60.1319 137.761 63.6248L139.614 64.3752C141.034 60.8681 142.288 57.6506 143.375 54.7232L141.5 54.0268ZM137.764 63.617C136.348 67.0326 134.89 70.5315 133.39 74.1139L135.235 74.8861C136.735 71.3018 138.194 67.8008 139.611 64.383L137.764 63.617ZM133.393 74.1061C131.892 77.6087 130.516 80.8618 129.264 83.8654L131.111 84.6346C132.359 81.6382 133.733 78.3913 135.232 74.8939L133.393 74.1061ZM129.268 83.8561C128.02 86.7681 126.941 89.2184 126.028 91.2083L127.847 92.0417C128.768 90.0316 129.855 87.5652 131.107 84.6439L129.268 83.8561ZM126.014 91.2404C125.192 93.2138 124.712 94.3886 124.614 94.6838L126.511 95.3162C126.579 95.1114 127.016 94.0362 127.861 92.0096L126.014 91.2404ZM124.634 94.6286C124.439 95.1151 124.184 95.4491 123.889 95.6775C123.593 95.9058 123.206 96.068 122.688 96.1327L122.937 98.1173C123.752 98.0154 124.49 97.7401 125.111 97.26C125.733 96.7801 126.186 96.1349 126.491 95.3714L124.634 94.6286ZM122.105 96.4179C121.761 96.7627 121.389 97.0312 120.99 97.2306L121.885 99.0194C122.486 98.7188 123.031 98.3206 123.52 97.8321L122.105 96.4179ZM121.121 97.1763C120.697 97.3176 120.348 97.375 120.062 97.375V99.375C120.611 99.375 121.178 99.2658 121.754 99.0737L121.121 97.1763ZM120.062 97.375C119.475 97.375 119.027 97.2385 118.672 97.0068C118.315 96.7733 117.988 96.4003 117.717 95.8242L115.908 96.6758C116.303 97.5164 116.851 98.2058 117.578 98.6807C118.307 99.1573 119.15 99.375 120.062 99.375V97.375ZM117.761 95.9338C117.656 95.617 117.12 94.4193 116.222 92.4583L114.403 93.2917C114.861 94.2904 115.214 95.0676 115.461 95.6249C115.585 95.9038 115.682 96.1246 115.751 96.289C115.786 96.3713 115.813 96.4367 115.833 96.4866C115.843 96.5115 115.851 96.5309 115.856 96.5455C115.862 96.5608 115.864 96.5669 115.864 96.5662L117.761 95.9338ZM116.236 92.4904C115.401 90.4862 114.357 88.0246 113.107 85.1061L111.268 85.8939C112.518 88.8088 113.558 91.2638 114.389 93.2596L116.236 92.4904ZM113.111 85.1154C111.86 82.1148 110.485 78.8226 108.985 75.2389L107.14 76.0111C108.64 79.5941 110.015 82.8852 111.264 85.8846L113.111 85.1154ZM108.985 75.2389C107.485 71.6565 106.027 68.1576 104.611 64.742L102.764 65.508C104.181 68.9258 105.64 72.4268 107.14 76.0111L108.985 75.2389ZM104.619 64.7615C103.285 61.3426 102.034 58.1733 100.866 55.2536L99.009 55.9964C100.174 58.9101 101.423 62.0741 102.756 65.4885L104.619 64.7615ZM100.866 55.2536C99.7031 52.3464 98.8826 50.0869 98.3953 48.4627L96.4797 49.0373C96.9924 50.7465 97.8386 53.0703 99.009 55.9964L100.866 55.2536ZM98.3899 48.4452C97.7182 46.3462 96.8389 43.7922 95.7531 40.7854L93.8719 41.4646C94.9528 44.4578 95.8234 46.9871 96.4851 49.0548L98.3899 48.4452ZM95.756 40.7935C94.6675 37.6955 93.4541 34.4739 92.116 31.1286L90.259 31.8714C91.5876 35.1928 92.7908 38.3878 93.869 41.4565L95.756 40.7935ZM92.116 31.1286C90.7789 27.7859 89.4 24.4849 87.9792 21.2254L86.1458 22.0246C87.5583 25.2651 88.9294 28.5474 90.259 31.8714L92.116 31.1286ZM87.991 21.2536C86.6546 17.9126 85.4004 14.9025 84.2287 12.2242L82.3963 13.0258C83.5579 15.6808 84.8038 18.6708 86.134 21.9964L87.991 21.2536ZM82.3963 12.2242C81.226 14.8992 79.973 17.8647 78.6373 21.1204L80.4877 21.8796C81.8187 18.6353 83.0656 15.6842 84.2287 13.0258L82.3963 12.2242ZM78.6409 21.1119C77.3046 24.2855 76.0101 27.4591 74.7573 30.6328L76.6177 31.3672C77.8649 28.2076 79.1537 25.0479 80.4841 21.8881L78.6409 21.1119ZM74.7573 30.6328C73.5051 33.8052 72.336 36.8532 71.2501 39.7768L73.1249 40.4732C74.2057 37.5634 75.3699 34.5281 76.6177 31.3672L74.7573 30.6328ZM71.2416 39.8007C70.241 42.7189 69.4067 45.1801 68.7388 47.1838L70.6362 47.8162C71.3016 45.8199 72.134 43.3644 73.1334 40.4493L71.2416 39.8007ZM68.7297 47.2127C68.2424 48.8369 67.4219 51.0964 66.259 54.0036L68.116 54.7464C69.2864 51.8203 70.1326 49.4965 70.6453 47.7873L68.7297 47.2127ZM66.259 54.0036C65.093 56.9188 63.8018 60.1258 62.3856 63.6248L64.2394 64.3752C65.6565 60.8742 66.9487 57.6645 68.116 54.7464L66.259 54.0036ZM62.3809 63.6365C61.0507 67.0451 59.6371 70.5376 58.1401 74.1139L59.9849 74.8861C61.4879 71.2957 62.9076 67.7882 64.2441 64.3635L62.3809 63.6365ZM58.1434 74.1061C56.6422 77.6087 55.2659 80.8618 54.0144 83.8654L55.8606 84.6346C57.1091 81.6382 58.4828 78.3913 59.9816 74.8939L58.1434 74.1061ZM54.0184 83.8561C52.7703 86.7681 51.6905 89.2184 50.7784 91.2083L52.5966 92.0417C53.5178 90.0316 54.6047 87.5652 55.8566 84.6439L54.0184 83.8561ZM50.7644 91.2404C49.9421 93.2138 49.4622 94.3886 49.3638 94.6838L51.2612 95.3162C51.3295 95.1114 51.7662 94.0362 52.6106 92.0096L50.7644 91.2404ZM49.384 94.6286C49.1938 95.1041 48.9354 95.4347 48.6244 95.6646C48.3104 95.8966 47.8902 96.0648 47.3207 96.1318L47.5543 98.1182C48.4015 98.0185 49.1687 97.7492 49.8131 97.2729C50.4604 96.7945 50.9312 96.1459 51.241 95.3714L49.384 94.6286ZM46.58 96.6105C46.467 96.7988 46.2426 97.0134 45.7936 97.2059L46.5814 99.0441C47.2991 98.7366 47.908 98.2845 48.295 97.6395L46.58 96.6105ZM45.8713 97.1763C45.7177 97.2275 45.5743 97.25 45.4375 97.25V99.25C45.8007 99.25 46.1573 99.1892 46.5037 99.0737L45.8713 97.1763ZM44.9903 97.3556C45.0016 97.3499 44.9579 97.375 44.8125 97.375V99.375C45.1671 99.375 45.5401 99.3167 45.8847 99.1444L44.9903 97.3556ZM44.8125 97.375C44.2253 97.375 43.7766 97.2385 43.4222 97.0068C43.0652 96.7733 42.7384 96.4003 42.4673 95.8242L40.6577 96.6758C41.0532 97.5164 41.6015 98.2058 42.3278 98.6807C43.0567 99.1573 43.8997 99.375 44.8125 99.375V97.375ZM42.5112 95.9338C42.4056 95.617 41.8703 94.4193 40.9716 92.4583L39.1534 93.2917C39.6112 94.2904 39.9635 95.0676 40.2112 95.6249C40.3352 95.9038 40.4315 96.1246 40.5013 96.289C40.5362 96.3713 40.5633 96.4367 40.5832 96.4866C40.5932 96.5115 40.6007 96.5309 40.6062 96.5455C40.612 96.5608 40.6141 96.5669 40.6138 96.5662L42.5112 95.9338ZM40.9856 92.4904C40.1505 90.4862 39.1074 88.0246 37.8566 85.1061L36.0184 85.8939C37.2676 88.8088 38.3078 91.2638 39.1394 93.2596L40.9856 92.4904ZM37.8606 85.1154C36.6103 82.1148 35.2351 78.8226 33.7349 75.2389L31.8901 76.0111C33.3899 79.5941 34.7647 82.8852 36.0144 85.8846L37.8606 85.1154ZM33.7349 75.2389C32.2354 71.6565 30.7775 68.1576 29.3612 64.742L27.5138 65.508C28.9309 68.9258 30.3896 72.4268 31.8901 76.0111L33.7349 75.2389ZM29.3691 64.7615C28.0349 61.3426 26.7838 58.1733 25.616 55.2536L23.759 55.9964C24.9245 58.9101 26.1734 62.0741 27.5059 65.4885L29.3691 64.7615ZM25.616 55.2536C24.4531 52.3464 23.6326 50.0869 23.1453 48.4627L21.2297 49.0373C21.7424 50.7465 22.5886 53.0703 23.759 55.9964L25.616 55.2536ZM23.1392 48.443C22.2983 45.8361 21.1247 42.5678 19.6214 38.6424L17.7536 39.3576C19.2503 43.2655 20.4101 46.4972 21.2358 49.057L23.1392 48.443ZM19.6279 38.6599C18.2064 34.7298 16.6598 30.7172 14.9883 26.6221L13.1367 27.3779C14.7985 31.4495 16.3353 35.4369 17.7471 39.3401L19.6279 38.6599ZM14.9949 26.6385C13.4074 22.5445 11.8193 18.6578 10.2306 14.9786L8.39444 15.7714C9.97234 19.4255 11.5509 23.2888 13.1301 27.3615L14.9949 26.6385ZM10.2263 14.9689C8.55648 11.2117 7.17191 8.27364 6.07472 6.16365L4.30028 7.08635C5.36975 9.14303 6.73519 12.0383 8.39869 15.7811L10.2263 14.9689ZM6.08193 6.17779C5.9044 5.82273 5.8125 5.43505 5.8125 5H3.8125C3.8125 5.73162 3.9706 6.42727 4.29307 7.07221L6.08193 6.17779ZM5.8125 5C5.8125 4.49561 5.92861 4.10102 6.12925 3.78C6.3319 3.45575 6.65645 3.14989 7.15809 2.88235L6.21691 1.11765C5.46855 1.51678 4.8556 2.04425 4.43325 2.72C4.00889 3.39898 3.8125 4.17105 3.8125 5H5.8125ZM7.3122 2.78087C7.51105 2.62179 7.81495 2.5 8.3125 2.5V0.5C7.47672 0.5 6.69729 0.711546 6.0628 1.21913L7.3122 2.78087ZM8.3125 2.5C8.87011 2.5 9.30057 2.62154 9.64175 2.82624C9.98293 3.03095 10.2927 3.35358 10.5551 3.84559L12.3199 2.90441C11.9156 2.14642 11.3712 1.53155 10.6707 1.11126C9.97026 0.690965 9.17156 0.5 8.3125 0.5V2.5ZM10.5431 3.82221C11.6967 6.12953 13.1044 9.23358 14.7673 13.1416L16.6077 12.3584C14.9373 8.43309 13.5116 5.28713 12.3319 2.92779L10.5431 3.82221ZM14.7704 13.1487C16.4318 16.97 18.0939 21.0004 19.7565 25.2401L21.6185 24.5099C19.9478 20.2496 18.2765 16.1967 16.6046 12.3513L14.7704 13.1487ZM19.7655 25.2622C21.5086 29.4124 23.085 33.478 24.4949 37.4588L26.3801 36.7912C24.9567 32.772 23.3664 28.6709 21.6095 24.4878L19.7655 25.2622ZM24.5036 37.4826C26.001 41.3924 27.1186 44.498 27.8605 46.806L29.7645 46.194C29.0064 43.8354 27.874 40.6909 26.3714 36.7674L24.5036 37.4826ZM27.8558 46.7912C28.4512 48.7474 29.4632 51.5276 30.8825 55.1177L32.7425 54.3823C31.3285 50.8057 30.3405 48.0859 29.7692 46.2088L27.8558 46.7912ZM30.8856 55.1252C32.3026 58.6262 33.8447 62.4188 35.5117 66.5029L37.3633 65.7471C35.697 61.6645 34.1557 57.8738 32.7394 54.3748L30.8856 55.1252ZM35.5144 66.5096C35.5463 66.586 35.5607 66.6207 35.5925 66.6971C35.6244 66.7735 35.6388 66.8082 35.6707 66.8846C35.7025 66.961 35.717 66.9957 35.7488 67.0721C35.7806 67.1485 35.7951 67.1832 35.8269 67.2596C35.8588 67.336 35.8732 67.3707 35.905 67.4471C35.9369 67.5235 35.9513 67.5582 35.9832 67.6346C36.015 67.711 36.0295 67.7457 36.0613 67.8221C36.0931 67.8985 36.1076 67.9332 36.1394 68.0096C36.1713 68.086 36.1857 68.1207 36.2175 68.1971C36.2494 68.2735 36.2638 68.3082 36.2957 68.3846C36.3275 68.461 36.342 68.4957 36.3738 68.5721C36.4056 68.6485 36.4201 68.6832 36.4519 68.7596C36.4838 68.836 36.4982 68.8707 36.53 68.9471C36.5619 69.0235 36.5763 69.0582 36.6082 69.1346C36.64 69.211 36.6545 69.2457 36.6863 69.3221C36.7181 69.3985 36.7326 69.4332 36.7644 69.5096C36.7963 69.586 36.8107 69.6207 36.8425 69.6971C36.8744 69.7735 36.8888 69.8082 36.9207 69.8846C36.9525 69.961 36.967 69.9957 36.9988 70.0721C37.0306 70.1485 37.0451 70.1832 37.0769 70.2596C37.1088 70.336 37.1232 70.3707 37.155 70.4471C37.1869 70.5235 37.2013 70.5582 37.2332 70.6346C37.265 70.711 37.2795 70.7457 37.3113 70.8221C37.3431 70.8985 37.3576 70.9332 37.3894 71.0096C37.4213 71.086 37.4357 71.1207 37.4675 71.1971C37.4994 71.2735 37.5138 71.3082 37.5457 71.3846C37.5775 71.461 37.592 71.4957 37.6238 71.5721C37.6556 71.6485 37.6701 71.6832 37.7019 71.7596C37.7338 71.836 37.7482 71.8707 37.78 71.9471C37.8119 72.0235 37.8263 72.0582 37.8582 72.1346C37.89 72.211 37.9045 72.2457 37.9363 72.3221C37.9681 72.3985 37.9826 72.4332 38.0144 72.5096C38.0246 72.5339 38.0434 72.5791 38.0535 72.6034C38.0636 72.6277 38.0824 72.6728 38.0925 72.6971C38.1027 72.7214 38.1215 72.7666 38.1316 72.7909C38.1417 72.8152 38.1605 72.8603 38.1707 72.8846C38.1808 72.9089 38.1996 72.9541 38.2097 72.9784C38.2199 73.0027 38.2387 73.0478 38.2488 73.0721C38.2589 73.0964 38.2777 73.1416 38.2879 73.1659C38.298 73.1902 38.3168 73.2353 38.3269 73.2596C38.3371 73.2839 38.3559 73.3291 38.366 73.3534C38.3761 73.3777 38.3949 73.4228 38.405 73.4471C38.4152 73.4714 38.434 73.5166 38.4441 73.5409C38.4542 73.5652 38.473 73.6103 38.4832 73.6346C38.4933 73.6589 38.5121 73.7041 38.5222 73.7284C38.5324 73.7527 38.5512 73.7978 38.5613 73.8221C38.5714 73.8464 38.5902 73.8916 38.6004 73.9159C38.6105 73.9402 38.6293 73.9853 38.6394 74.0096C38.6496 74.0339 38.6684 74.0791 38.6785 74.1034C38.6886 74.1277 38.7074 74.1728 38.7175 74.1971C38.7277 74.2214 38.7465 74.2666 38.7566 74.2909C38.7667 74.3152 38.7855 74.3603 38.7957 74.3846C38.8058 74.4089 38.8246 74.4541 38.8347 74.4784C38.8449 74.5027 38.8637 74.5478 38.8738 74.5721C38.8839 74.5964 38.9027 74.6416 38.9129 74.6659C38.923 74.6902 38.9418 74.7353 38.9519 74.7596C38.9621 74.7839 38.9809 74.8291 38.991 74.8534C39.0011 74.8777 39.0199 74.9228 39.03 74.9471C39.0402 74.9714 39.059 75.0166 39.0691 75.0409C39.0792 75.0652 39.098 75.1103 39.1082 75.1346C39.1183 75.1589 39.1371 75.2041 39.1472 75.2284C39.1574 75.2527 39.1762 75.2978 39.1863 75.3221C39.1964 75.3464 39.2152 75.3916 39.2254 75.4159C39.2355 75.4402 39.2543 75.4853 39.2644 75.5096C39.2746 75.5339 39.2934 75.5791 39.3035 75.6034C39.3136 75.6277 39.3324 75.6728 39.3425 75.6971C39.3527 75.7214 39.3715 75.7666 39.3816 75.7909C39.3917 75.8152 39.4105 75.8603 39.4207 75.8846C39.4308 75.9089 39.4496 75.9541 39.4597 75.9784C39.4699 76.0027 39.4887 76.0478 39.4988 76.0721C39.5089 76.0964 39.5277 76.1416 39.5379 76.1659C39.548 76.1902 39.5668 76.2353 39.5769 76.2596C39.5871 76.2839 39.6059 76.3291 39.616 76.3534C39.6261 76.3777 39.6449 76.4228 39.655 76.4471C39.6652 76.4714 39.684 76.5166 39.6941 76.5409C39.7042 76.5652 39.723 76.6103 39.7332 76.6346C39.7433 76.6589 39.7621 76.7041 39.7722 76.7284C39.7824 76.7527 39.8012 76.7978 39.8113 76.8221C39.8214 76.8464 39.8402 76.8916 39.8504 76.9159C39.8605 76.9402 39.8793 76.9853 39.8894 77.0096C39.8996 77.0339 39.9184 77.0791 39.9285 77.1034C39.9386 77.1277 39.9574 77.1728 39.9675 77.1971C39.9777 77.2214 39.9965 77.2666 40.0066 77.2909C40.0167 77.3152 40.0355 77.3603 40.0457 77.3846C40.0558 77.4089 40.0746 77.4541 40.0847 77.4784C40.0949 77.5027 40.1137 77.5478 40.1238 77.5721C40.1339 77.5964 40.1527 77.6416 40.1629 77.6659C40.173 77.6902 40.1918 77.7353 40.2019 77.7596C40.2121 77.7839 40.2309 77.8291 40.241 77.8534C40.2511 77.8777 40.2699 77.9228 40.28 77.9471C40.2902 77.9714 40.309 78.0166 40.3191 78.0409C40.3292 78.0652 40.348 78.1103 40.3582 78.1346C40.3683 78.1589 40.3871 78.2041 40.3972 78.2284C40.4074 78.2527 40.4262 78.2978 40.4363 78.3221C40.4464 78.3464 40.4652 78.3916 40.4754 78.4159C40.4855 78.4402 40.5043 78.4853 40.5144 78.5096L42.3606 77.7404C42.2564 77.4904 42.1522 77.2404 42.0481 76.9904C42.0448 76.9826 42.0416 76.9748 42.0383 76.9669C42.0351 76.9591 42.0318 76.9513 42.0285 76.9435C42.0253 76.9357 42.022 76.9279 42.0188 76.9201C42.0155 76.9123 42.0123 76.9044 42.009 76.8966C42.0058 76.8888 42.0025 76.881 41.9992 76.8732C41.996 76.8654 41.9927 76.8576 41.9895 76.8498C41.9862 76.8419 41.983 76.8341 41.9797 76.8263C41.9765 76.8185 41.9732 76.8107 41.97 76.8029C41.9667 76.7951 41.9634 76.7873 41.9602 76.7794C41.9569 76.7716 41.9537 76.7638 41.9504 76.756C41.9472 76.7482 41.9439 76.7404 41.9407 76.7326C41.9374 76.7248 41.9341 76.7169 41.9309 76.7091C41.9294 76.7057 41.9128 76.6657 41.9114 76.6623C41.9099 76.6588 41.8933 76.6189 41.8918 76.6154C41.86 76.539 41.8455 76.5043 41.8137 76.4279C41.7819 76.3515 41.7674 76.3168 41.7356 76.2404C41.7037 76.164 41.6893 76.1293 41.6575 76.0529C41.6256 75.9765 41.6112 75.9418 41.5793 75.8654C41.5475 75.789 41.533 75.7543 41.5012 75.6779C41.4694 75.6015 41.4549 75.5668 41.4231 75.4904C41.3912 75.414 41.3768 75.3793 41.345 75.3029C41.3131 75.2265 41.2987 75.1918 41.2668 75.1154C41.235 75.039 41.2205 75.0043 41.1887 74.9279C41.1569 74.8515 41.1424 74.8168 41.1106 74.7404C41.0787 74.664 41.0643 74.6293 41.0325 74.5529C41.0006 74.4765 40.9862 74.4418 40.9543 74.3654C40.9225 74.289 40.908 74.2543 40.8762 74.1779C40.8444 74.1015 40.8299 74.0668 40.7981 73.9904C40.7662 73.914 40.7518 73.8793 40.72 73.8029C40.6881 73.7265 40.6737 73.6918 40.6418 73.6154C40.61 73.539 40.5955 73.5043 40.5637 73.4279C40.5319 73.3515 40.5174 73.3168 40.4856 73.2404C40.4537 73.164 40.4393 73.1293 40.4075 73.0529C40.3756 72.9765 40.3612 72.9418 40.3293 72.8654C40.2975 72.789 40.283 72.7543 40.2512 72.6779C40.2194 72.6015 40.2049 72.5668 40.1731 72.4904C40.1412 72.414 40.1268 72.3793 40.095 72.3029C40.0631 72.2265 40.0487 72.1918 40.0168 72.1154C39.985 72.039 39.9705 72.0043 39.9387 71.9279C39.9069 71.8515 39.8924 71.8168 39.8606 71.7404C39.8504 71.7161 39.8316 71.6709 39.8215 71.6466C39.8114 71.6223 39.7926 71.5772 39.7825 71.5529C39.7723 71.5286 39.7535 71.4834 39.7434 71.4591C39.7333 71.4348 39.7145 71.3897 39.7043 71.3654C39.6942 71.3411 39.6754 71.2959 39.6653 71.2716C39.6551 71.2473 39.6363 71.2022 39.6262 71.1779C39.6161 71.1536 39.5973 71.1084 39.5871 71.0841C39.577 71.0598 39.5582 71.0147 39.5481 70.9904C39.5379 70.9661 39.5191 70.9209 39.509 70.8966C39.4989 70.8723 39.4801 70.8272 39.47 70.8029C39.4598 70.7786 39.441 70.7334 39.4309 70.7091C39.4208 70.6848 39.402 70.6397 39.3918 70.6154C39.3817 70.5911 39.3629 70.5459 39.3528 70.5216C39.3426 70.4973 39.3238 70.4522 39.3137 70.4279C39.3036 70.4036 39.2848 70.3584 39.2746 70.3341C39.2645 70.3098 39.2457 70.2647 39.2356 70.2404C39.2254 70.2161 39.2066 70.1709 39.1965 70.1466C39.1864 70.1223 39.1676 70.0772 39.1575 70.0529C39.1473 70.0286 39.1285 69.9834 39.1184 69.9591C39.1083 69.9348 39.0895 69.8897 39.0793 69.8654C39.0692 69.8411 39.0504 69.7959 39.0403 69.7716C39.0301 69.7473 39.0113 69.7022 39.0012 69.6779C38.9911 69.6536 38.9723 69.6084 38.9621 69.5841C38.952 69.5598 38.9332 69.5147 38.9231 69.4904C38.9129 69.4661 38.8941 69.4209 38.884 69.3966C38.8739 69.3723 38.8551 69.3272 38.845 69.3029C38.8348 69.2786 38.816 69.2334 38.8059 69.2091C38.7958 69.1848 38.777 69.1397 38.7668 69.1154C38.7567 69.0911 38.7379 69.0459 38.7278 69.0216C38.7176 68.9973 38.6988 68.9522 38.6887 68.9279C38.6786 68.9036 38.6598 68.8584 38.6496 68.8341C38.6395 68.8098 38.6207 68.7647 38.6106 68.7404C38.6004 68.7161 38.5816 68.6709 38.5715 68.6466C38.5614 68.6223 38.5426 68.5772 38.5325 68.5529C38.5223 68.5286 38.5035 68.4834 38.4934 68.4591C38.4833 68.4348 38.4645 68.3897 38.4543 68.3654C38.4442 68.3411 38.4254 68.2959 38.4153 68.2716C38.4051 68.2473 38.3863 68.2022 38.3762 68.1779C38.3661 68.1536 38.3473 68.1084 38.3371 68.0841C38.327 68.0598 38.3082 68.0147 38.2981 67.9904C38.2879 67.9661 38.2691 67.9209 38.259 67.8966C38.2489 67.8723 38.2301 67.8272 38.22 67.8029C38.2098 67.7786 38.191 67.7334 38.1809 67.7091C38.1708 67.6848 38.152 67.6397 38.1418 67.6154C38.1317 67.5911 38.1129 67.5459 38.1028 67.5216C38.0926 67.4973 38.0738 67.4522 38.0637 67.4279C38.0536 67.4036 38.0348 67.3584 38.0246 67.3341C38.0145 67.3098 37.9957 67.2647 37.9856 67.2404C37.9754 67.2161 37.9566 67.1709 37.9465 67.1466C37.9364 67.1223 37.9176 67.0772 37.9075 67.0529C37.8973 67.0286 37.8785 66.9834 37.8684 66.9591C37.8583 66.9348 37.8395 66.8897 37.8293 66.8654C37.8192 66.8411 37.8004 66.7959 37.7903 66.7716C37.7801 66.7473 37.7613 66.7022 37.7512 66.6779C37.7411 66.6536 37.7223 66.6084 37.7121 66.5841C37.702 66.5598 37.6832 66.5147 37.6731 66.4904C37.6629 66.4661 37.6441 66.4209 37.634 66.3966C37.6239 66.3723 37.6051 66.3272 37.595 66.3029C37.5848 66.2786 37.566 66.2334 37.5559 66.2091C37.5458 66.1848 37.527 66.1397 37.5168 66.1154C37.5067 66.0911 37.4879 66.0459 37.4778 66.0216C37.4676 65.9973 37.4488 65.9522 37.4387 65.9279C37.4286 65.9036 37.4098 65.8584 37.3996 65.8341C37.3895 65.8098 37.3707 65.7647 37.3606 65.7404L35.5144 66.5096ZM40.5173 78.5166C42.1848 82.435 43.6029 85.73 44.7713 88.4008L46.6037 87.5992C45.4388 84.9366 44.0235 81.6483 42.3577 77.7334L40.5173 78.5166ZM46.6051 88.3976C47.691 85.8915 49.068 82.6368 50.7356 78.6346L48.8894 77.8654C47.2236 81.8632 45.8507 85.1085 44.7699 87.6024L46.6051 88.3976ZM50.7316 78.6439C52.4826 74.5583 54.2336 70.4311 55.9845 66.2622L54.1405 65.4878C52.3914 69.6522 50.6424 73.775 48.8934 77.8561L50.7316 78.6439ZM55.9872 66.2557C57.7404 61.998 59.3274 57.9888 60.748 54.2284L58.877 53.5216C57.4643 57.2612 55.8846 61.252 54.1378 65.4943L55.9872 66.2557ZM60.741 54.2464C62.2423 50.4932 63.3325 47.6426 64.007 45.7035L62.118 45.0465C61.4591 46.9408 60.3827 49.7568 58.884 53.5036L60.741 54.2464ZM64.0176 45.6714C64.7611 43.2757 65.8386 40.1253 67.2529 36.2151L65.3721 35.5349C63.9531 39.4581 62.8639 42.6409 62.1074 45.0786L64.0176 45.6714ZM67.2464 36.2326C68.7453 32.3187 70.3277 28.2378 71.9935 23.9901L70.1315 23.2599C68.464 27.5122 66.8797 31.598 65.3786 35.5174L67.2464 36.2326ZM71.9935 23.9901C73.6561 19.7504 75.3182 15.72 76.9796 11.8987L75.1454 11.1013C73.4735 14.9467 71.8022 18.9996 70.1315 23.2599L71.9935 23.9901ZM76.9755 11.9079C78.7222 7.99869 80.1715 4.93539 81.3253 2.71032L79.5497 1.78968C78.3702 4.06461 76.9028 7.16798 75.1495 11.0921L76.9755 11.9079ZM81.3319 2.69721C81.6005 2.16001 81.8838 1.8949 82.1347 1.76943L81.2403 -0.0194272C80.4912 0.355099 79.9411 1.00665 79.5431 1.80279L81.3319 2.69721ZM82.1836 1.74324C82.6171 1.49555 83.0713 1.375 83.5625 1.375V-0.625C82.7204 -0.625 81.9246 -0.412212 81.1914 0.00675686L82.1836 1.74324ZM83.5625 1.375C83.9975 1.375 84.3852 1.4669 84.7403 1.64443L85.6347 -0.144427C84.9898 -0.466901 84.2941 -0.625 83.5625 -0.625V1.375ZM84.7169 1.63235C85.1898 1.88455 85.5099 2.20201 85.7196 2.57939C85.9326 2.96279 86.0625 3.46454 86.0625 4.125H88.0625C88.0625 3.20213 87.8799 2.34971 87.4679 1.60811C87.0526 0.860486 86.4352 0.282121 85.6581 -0.132353L84.7169 1.63235ZM86.1743 4.58442C87.4045 6.96283 88.8081 10.0981 90.3854 13.9998L92.2396 13.2502C90.6502 9.31859 89.2205 6.12051 87.9507 3.66558L86.1743 4.58442ZM90.3954 14.0237C92.0565 17.8442 93.6764 21.7901 95.2551 25.8615L97.1199 25.1385C95.5319 21.0432 93.9018 17.0725 92.2296 13.2263L90.3954 14.0237ZM95.2617 25.8779C96.9244 29.9517 98.462 33.8996 99.8745 37.7217L101.75 37.0283C100.33 33.1838 98.7839 29.215 97.1133 25.1221L95.2617 25.8779ZM99.877 37.7284C101.291 41.4712 102.368 44.4954 103.11 46.806L105.015 46.194C104.257 43.838 103.167 40.7788 101.748 37.0216L99.877 37.7284ZM103.106 46.7912C103.701 48.7474 104.713 51.5276 106.133 55.1177L107.992 54.3823C106.578 50.8057 105.59 48.0859 105.019 46.2088L103.106 46.7912ZM106.136 55.1252C107.553 58.6262 109.095 62.4188 110.762 66.5029L112.613 65.7471C110.947 61.6645 109.406 57.8738 107.989 54.3748L106.136 55.1252ZM110.764 66.5096C110.789 66.5686 110.896 66.8256 110.921 66.8846C110.945 66.9436 111.052 67.2006 111.077 67.2596C111.102 67.3186 111.209 67.5756 111.233 67.6346C111.258 67.6936 111.365 67.9506 111.389 68.0096C111.414 68.0686 111.521 68.3256 111.546 68.3846C111.57 68.4436 111.677 68.7006 111.702 68.7596C111.727 68.8186 111.834 69.0756 111.858 69.1346C111.883 69.1936 111.99 69.4506 112.014 69.5096C112.039 69.5686 112.146 69.8256 112.171 69.8846C112.195 69.9436 112.302 70.2006 112.327 70.2596C112.352 70.3186 112.459 70.5756 112.483 70.6346C112.508 70.6936 112.615 70.9506 112.639 71.0096C112.664 71.0686 112.771 71.3256 112.796 71.3846C112.82 71.4436 112.927 71.7006 112.952 71.7596C112.977 71.8186 113.084 72.0756 113.108 72.1346C113.133 72.1936 113.24 72.4506 113.264 72.5096C113.289 72.5686 113.318 72.6381 113.343 72.6971C113.367 72.7561 113.396 72.8256 113.421 72.8846C113.445 72.9436 113.474 73.0131 113.499 73.0721C113.523 73.1311 113.552 73.2006 113.577 73.2596C113.602 73.3186 113.63 73.3881 113.655 73.4471C113.68 73.5061 113.709 73.5756 113.733 73.6346C113.758 73.6936 113.787 73.7631 113.811 73.8221C113.836 73.8811 113.865 73.9506 113.889 74.0096C113.914 74.0686 113.943 74.1381 113.968 74.1971C113.992 74.2561 114.021 74.3256 114.046 74.3846C114.07 74.4436 114.099 74.5131 114.124 74.5721C114.148 74.6311 114.177 74.7006 114.202 74.7596C114.227 74.8186 114.255 74.8881 114.28 74.9471C114.305 75.0061 114.334 75.0756 114.358 75.1346C114.383 75.1936 114.412 75.2631 114.436 75.3221C114.461 75.3811 114.49 75.4506 114.514 75.5096C114.539 75.5686 114.568 75.6381 114.593 75.6971C114.617 75.7561 114.646 75.8256 114.671 75.8846C114.695 75.9436 114.724 76.0131 114.749 76.0721C114.773 76.1311 114.802 76.2006 114.827 76.2596C114.852 76.3186 114.88 76.3881 114.905 76.4471C114.93 76.5061 114.959 76.5756 114.983 76.6346C115.008 76.6936 115.037 76.7631 115.061 76.8221C115.086 76.8811 115.115 76.9506 115.139 77.0096C115.164 77.0686 115.193 77.1381 115.218 77.1971C115.242 77.2561 115.271 77.3256 115.296 77.3846C115.32 77.4436 115.349 77.5131 115.374 77.5721C115.398 77.6311 115.427 77.7006 115.452 77.7596C115.477 77.8186 115.505 77.8881 115.53 77.9471C115.555 78.0061 115.584 78.0756 115.608 78.1346C115.633 78.1936 115.662 78.2631 115.686 78.3221C115.711 78.3811 115.74 78.4506 115.764 78.5096L117.611 77.7404C117.586 77.6814 117.479 77.4244 117.454 77.3654C117.43 77.3064 117.323 77.0494 117.298 76.9904C117.273 76.9314 117.166 76.6744 117.142 76.6154C117.117 76.5564 117.01 76.2994 116.986 76.2404C116.961 76.1814 116.854 75.9244 116.829 75.8654C116.805 75.8064 116.698 75.5494 116.673 75.4904C116.648 75.4314 116.541 75.1744 116.517 75.1154C116.492 75.0564 116.385 74.7994 116.361 74.7404C116.336 74.6814 116.229 74.4244 116.204 74.3654C116.18 74.3064 116.073 74.0494 116.048 73.9904C116.023 73.9314 115.916 73.6744 115.892 73.6154C115.867 73.5564 115.76 73.2994 115.736 73.2404C115.711 73.1814 115.604 72.9244 115.579 72.8654C115.555 72.8064 115.448 72.5494 115.423 72.4904C115.398 72.4314 115.291 72.1744 115.267 72.1154C115.242 72.0564 115.135 71.7994 115.111 71.7404C115.086 71.6814 115.057 71.6119 115.032 71.5529C115.008 71.4939 114.979 71.4244 114.954 71.3654C114.93 71.3064 114.901 71.2369 114.876 71.1779C114.852 71.1189 114.823 71.0494 114.798 70.9904C114.773 70.9314 114.745 70.8619 114.72 70.8029C114.695 70.7439 114.666 70.6744 114.642 70.6154C114.617 70.5564 114.588 70.4869 114.564 70.4279C114.539 70.3689 114.51 70.2994 114.486 70.2404C114.461 70.1814 114.432 70.1119 114.407 70.0529C114.383 69.9939 114.354 69.9244 114.329 69.8654C114.305 69.8064 114.276 69.7369 114.251 69.6779C114.227 69.6189 114.198 69.5494 114.173 69.4904C114.148 69.4314 114.12 69.3619 114.095 69.3029C114.07 69.2439 114.041 69.1744 114.017 69.1154C113.992 69.0564 113.963 68.9869 113.939 68.9279C113.914 68.8689 113.885 68.7994 113.861 68.7404C113.836 68.6814 113.807 68.6119 113.782 68.5529C113.758 68.4939 113.729 68.4244 113.704 68.3654C113.68 68.3064 113.651 68.2369 113.626 68.1779C113.602 68.1189 113.573 68.0494 113.548 67.9904C113.523 67.9314 113.495 67.8619 113.47 67.8029C113.445 67.7439 113.416 67.6744 113.392 67.6154C113.367 67.5564 113.338 67.4869 113.314 67.4279C113.289 67.3689 113.26 67.2994 113.236 67.2404C113.211 67.1814 113.182 67.1119 113.157 67.0529C113.133 66.9939 113.104 66.9244 113.079 66.8654C113.055 66.8064 113.026 66.7369 113.001 66.6779C112.977 66.6189 112.948 66.5494 112.923 66.4904C112.898 66.4314 112.87 66.3619 112.845 66.3029C112.82 66.2439 112.791 66.1744 112.767 66.1154C112.742 66.0564 112.713 65.9869 112.689 65.9279C112.664 65.8689 112.635 65.7994 112.611 65.7404L110.764 66.5096ZM115.767 78.5166C117.435 82.435 118.853 85.73 120.021 88.4008L121.854 87.5992C120.689 84.9366 119.274 81.6483 117.608 77.7334L115.767 78.5166ZM121.855 88.3976C122.941 85.8915 124.318 82.6368 125.986 78.6346L124.139 77.8654C122.474 81.8632 121.101 85.1085 120.02 87.6024L121.855 88.3976ZM125.982 78.6439C127.733 74.5583 129.484 70.4311 131.234 66.2622L129.391 65.4878C127.641 69.6522 125.892 73.775 124.143 77.8561L125.982 78.6439ZM131.237 66.2557C132.99 61.998 134.577 57.9888 135.998 54.2284L134.127 53.5216C132.714 57.2612 131.135 61.252 129.388 65.4943L131.237 66.2557ZM135.991 54.2464C137.492 50.4932 138.583 47.6426 139.257 45.7035L137.368 45.0465C136.709 46.9408 135.633 49.7568 134.134 53.5036L135.991 54.2464ZM139.268 45.6714C140.011 43.2757 141.089 40.1253 142.503 36.2151L140.622 35.5349C139.203 39.4581 138.114 42.6409 137.357 45.0786L139.268 45.6714ZM142.496 36.2326C143.995 32.3187 145.578 28.2378 147.243 23.9901L145.382 23.2599C143.714 27.5122 142.13 31.598 140.629 35.5174L142.496 36.2326ZM147.243 23.9901C148.906 19.7504 150.568 15.72 152.23 11.8987L150.395 11.1013C148.724 14.9467 147.052 18.9996 145.382 23.2599L147.243 23.9901ZM152.226 11.9079C153.972 7.99869 155.422 4.93539 156.575 2.71032L154.8 1.78968C153.62 4.06461 152.153 7.16798 150.399 11.0921L152.226 11.9079ZM156.582 2.69721C156.851 2.16001 157.134 1.8949 157.385 1.76943L156.49 -0.0194272C155.741 0.355099 155.191 1.00665 154.793 1.80279L156.582 2.69721ZM157.434 1.74324C157.867 1.49555 158.321 1.375 158.812 1.375V-0.625C157.97 -0.625 157.175 -0.412212 156.441 0.00675686L157.434 1.74324ZM158.812 1.375C159.248 1.375 159.635 1.4669 159.99 1.64443L160.885 -0.144427C160.24 -0.466901 159.544 -0.625 158.812 -0.625V1.375Z" fill="white" mask="url(#path-1-outside-1_136_5)"/>
</g>
<defs>
<filter id="filter0_d_136_5" x="0.8125" y="0.375" width="165.5" height="106" filterUnits="userSpaceOnUse" color-interpolation-filters="sRGB">
<feFlood flood-opacity="0" result="BackgroundImageFix"/>
<feColorMatrix in="SourceAlpha" type="matrix" values="0 0 0 0 0 0 0 0 0 0 0 0 0 0 0 0 0 0 127 0" result="hardAlpha"/>
<feOffset dy="4"/>
<feGaussianBlur stdDeviation="2"/>
<feComposite in2="hardAlpha" operator="out"/>
<feColorMatrix type="matrix" values="0 0 0 0 0 0 0 0 0 0 0 0 0 0 0 0 0 0 0.25 0"/>
<feBlend mode="normal" in2="BackgroundImageFix" result="effect1_dropShadow_136_5"/>
<feBlend mode="normal" in="SourceGraphic" in2="effect1_dropShadow_136_5" result="shape"/>
</filter>
</defs>
</svg>
